<?xml version="1.0" encoding="UTF-8"?>
<svg id="Layer_2" data-name="Layer 2" xmlns="http://www.w3.org/2000/svg" viewBox="0 0 232.36 214.38">
  <defs>
    <style>
      .cls-1 {
        fill: #fff;
      }
    </style>
  </defs>
  <g id="Layer_1-2" data-name="Layer 1">
    <path class="cls-1" d="M232.36,38.73c0-21.39-17.34-38.73-38.73-38.73s-38.42,17.05-38.71,38.18h-.03c-.29-21.13-17.51-38.18-38.71-38.18s-38.42,17.05-38.71,38.18h-.03C77.15,17.05,59.93,0,38.73,0S0,17.34,0,38.73c0,7.6,2.2,14.68,5.98,20.66h0l44.1,77.49,44.74,77.49.06-.1h42.46l.06.1,44.74-77.49,44.24-77.49h0c3.78-5.98,5.98-13.06,5.98-20.66Z"/>
  </g>
</svg>